HIERARCHY
ROOT joint_Root
{
	OFFSET 0.0 0.0 0.0
	CHANNELS 6 Xposition Yposition Zposition Zrotation Xrotation Yrotation 
	JOINT Hips
	{
		OFFSET -0.726466 93.3139 -2.00062
		CHANNELS 6 Xposition Yposition Zposition Zrotation Xrotation Yrotation 
		JOINT Spine
		{
			OFFSET 15.7357 0.0 0.0
			CHANNELS 6 Xposition Yposition Zposition Zrotation Xrotation Yrotation 
			JOINT Chest
			{
				OFFSET 8.98455 -0.406207 0.0
				CHANNELS 6 Xposition Yposition Zposition Zrotation Xrotation Yrotation 
				JOINT Neck
				{
					OFFSET 16.3773 0.0 0.0
					CHANNELS 6 Xposition Yposition Zposition Zrotation Xrotation Yrotation 
					JOINT Head
					{
						OFFSET 6.45672 0.0 0.0
						CHANNELS 6 Xposition Yposition Zposition Zrotation Xrotation Yrotation 
						End Site
						{
							OFFSET 0.0 0.0 0.0
						}
					}
				}
				JOINT Shoulder_L
				{
					OFFSET 12.9942 -0.242716 4.98039
					CHANNELS 6 Xposition Yposition Zposition Zrotation Xrotation Yrotation 
					JOINT UpperArm_L
					{
						OFFSET 5.34809 0.0 0.0
						CHANNELS 6 Xposition Yposition Zposition Zrotation Xrotation Yrotation 
						JOINT LowerArm_L
						{
							OFFSET 24.3286 1.87007e-05 0.0
							CHANNELS 6 Xposition Yposition Zposition Zrotation Xrotation Yrotation 
							JOINT Hand_L
							{
								OFFSET 22.2916 0.0 0.0
								CHANNELS 6 Xposition Yposition Zposition Zrotation Xrotation Yrotation 
								End Site
								{
									OFFSET 0.0 0.0 0.0
								}
							}
						}
					}
				}
				JOINT Shoulder_R
				{
					OFFSET 12.9945 -0.242716 -4.98039
					CHANNELS 6 Xposition Yposition Zposition Zrotation Xrotation Yrotation 
					JOINT UpperArm_R
					{
						OFFSET -5.34813 0.0 0.0
						CHANNELS 6 Xposition Yposition Zposition Zrotation Xrotation Yrotation 
						JOINT LowerArm_R
						{
							OFFSET -24.3289 0.000322201 0.0
							CHANNELS 6 Xposition Yposition Zposition Zrotation Xrotation Yrotation 
							JOINT Hand_R
							{
								OFFSET -22.2915 -0.000108084 0.0
								CHANNELS 6 Xposition Yposition Zposition Zrotation Xrotation Yrotation 
								End Site
								{
									OFFSET 0.0 0.0 0.0
								}
							}
						}
					}
				}
			}
		}
		JOINT UpperLeg_L
		{
			OFFSET -2.19248 -6.46944 0.0
			CHANNELS 6 Xposition Yposition Zposition Zrotation Xrotation Yrotation 
			JOINT LowerLeg_L
			{
				OFFSET 39.0811 0.0 -1.23785e-05
				CHANNELS 6 Xposition Yposition Zposition Zrotation Xrotation Yrotation 
				JOINT Foot_L
				{
					OFFSET 40.9854 0.0 -1.26872e-05
					CHANNELS 6 Xposition Yposition Zposition Zrotation Xrotation Yrotation 
					JOINT Toes_L
					{
						OFFSET 11.7543 0.0 0.0
						CHANNELS 6 Xposition Yposition Zposition Zrotation Xrotation Yrotation 
						End Site
						{
							OFFSET 0.0 0.0 0.0
						}
					}
				}
			}
		}
		JOINT UpperLeg_R
		{
			OFFSET -2.19251 6.46944 0.0
			CHANNELS 6 Xposition Yposition Zposition Zrotation Xrotation Yrotation 
			JOINT LowerLeg_R
			{
				OFFSET -39.0811 -0.00228153 -0.0401928
				CHANNELS 6 Xposition Yposition Zposition Zrotation Xrotation Yrotation 
				JOINT Foot_R
				{
					OFFSET -40.9854 0.0 0.0
					CHANNELS 6 Xposition Yposition Zposition Zrotation Xrotation Yrotation 
					JOINT Toes_R
					{
						OFFSET -11.7543 0.0 0.0
						CHANNELS 6 Xposition Yposition Zposition Zrotation Xrotation Yrotation 
						End Site
						{
							OFFSET 0.0 0.0 0.0
						}
					}
				}
			}
		}
	}
}
MOTION
Frames:	9
Frame Time:	0.0333333
0.000000 0.000000 0.000000 0.000000 0.000000 -0.000000 -1.247550 92.359800 -2.007630 87.764800 1.837520 0.021436 15.735700 0.000005 -0.000001 80.730900 86.420100 -80.264200 8.984550 -0.406207 -0.000000 -0.694607 -1.187450 0.925906 16.377300 -0.000001 -0.000001 -1.363490 -1.888590 -0.580704 6.456720 -0.000001 -0.000000 -3.788120 -1.175930 4.157420 12.994200 -0.242716 4.980390 -89.609700 -1.130690 -70.955000 5.348090 -0.000007 -0.000001 -69.863400 32.151400 -11.737200 24.328600 0.000019 0.000005 3.752500 8.124170 -24.896100 22.291600 -0.000001 0.000005 6.970460 5.564530 -9.410890 12.994500 -0.242716 -4.980390 87.743800 6.000190 -69.348200 -5.348130 -0.000001 -0.000004 -65.572000 30.579500 -9.226170 -24.328900 0.000322 -0.000009 0.334544 0.843202 -21.727300 -22.291500 -0.000108 -0.000004 10.870800 5.513360 -7.081930 -2.192480 -6.469440 -0.000000 -169.335000 -15.612100 -6.013510 39.081100 -0.000007 -0.000012 -0.146056 0.429457 18.783000 40.985400 -0.000006 -0.000013 -6.582360 4.057810 -60.984500 11.754300 -0.000000 0.000003 -0.000153 -0.001477 -16.633700 -2.192510 6.469440 -0.000001 175.602000 22.807700 176.806000 -39.081100 -0.002282 -0.040193 -0.018944 0.072528 17.069600 -40.985400 0.000008 0.000006 -2.774430 2.812050 -61.898400 -11.754300 -0.000006 -0.000006 -0.005159 -0.062995 -19.136300
0.000000 0.000000 0.000000 0.000000 0.000000 -0.000000 -1.203220 92.367500 -2.061320 87.759600 1.819230 0.037125 15.735700 0.000005 -0.000001 81.217000 86.407500 -80.750300 8.984550 -0.406207 -0.000000 -0.660512 -1.131180 0.926406 16.377300 -0.000001 -0.000001 -1.504010 -1.856920 -0.561934 6.456720 -0.000001 -0.000000 -4.289630 -1.196720 4.191770 12.994200 -0.242716 4.980390 -89.527100 -1.354360 -70.751700 5.348090 -0.000007 -0.000001 -69.805100 29.065600 -11.844900 24.328600 0.000019 0.000005 3.200520 7.215980 -23.995300 22.291600 -0.000001 0.000005 8.095670 5.571560 -9.770490 12.994500 -0.242716 -4.980390 87.889300 5.555520 -69.158800 -5.348130 -0.000001 -0.000004 -65.371200 26.843700 -9.592800 -24.328900 0.000322 -0.000009 0.586352 1.628020 -19.837500 -22.291500 -0.000108 -0.000004 12.887700 5.516830 -7.220070 -2.192480 -6.469440 -0.000000 -169.361000 -15.739100 -6.041290 39.081100 -0.000007 -0.000012 -0.144626 0.424822 18.800700 40.985400 -0.000006 -0.000013 -6.522280 4.178200 -60.953000 11.754300 -0.000000 0.000003 -0.000144 -0.001406 -16.631100 -2.192510 6.469440 -0.000001 175.610000 22.819400 176.780000 -39.081100 -0.002282 -0.040193 -0.016203 0.063659 17.055400 -40.985400 0.000008 0.000006 -2.704250 2.771360 -61.845800 -11.754300 -0.000006 -0.000006 -0.005159 -0.062999 -19.136500
0.000000 0.000000 0.000000 0.000000 0.000000 -0.000000 -1.143330 92.381500 -2.140960 87.789200 1.793450 0.070687 15.735700 0.000005 -0.000001 81.687500 86.405800 -81.232000 8.984550 -0.406207 -0.000000 -0.648652 -1.072460 0.904581 16.377300 -0.000001 -0.000001 -1.655180 -1.797010 -0.537682 6.456720 -0.000001 -0.000000 -4.657490 -1.246950 4.285870 12.994200 -0.242716 4.980390 -89.451700 -1.552980 -70.552100 5.348090 -0.000007 -0.000001 -68.884000 24.654600 -12.464100 24.328600 0.000019 0.000005 2.482400 5.979240 -22.594700 22.291600 -0.000001 0.000005 9.467480 5.564940 -9.438590 12.994500 -0.242716 -4.980390 88.033500 5.150270 -69.068500 -5.348130 -0.000001 -0.000004 -64.256000 21.887300 -10.038900 -24.328900 0.000322 -0.000009 0.189311 0.580840 -18.111300 -22.291500 -0.000108 -0.000004 15.547600 5.518550 -7.306380 -2.192480 -6.469440 -0.000000 -169.440000 -15.779800 -6.031270 39.081100 -0.000007 -0.000012 -0.143239 0.421762 18.758700 40.985400 -0.000006 -0.000013 -6.465170 4.187880 -60.895600 11.754300 -0.000000 0.000003 -0.000170 -0.001615 -16.638700 -2.192510 6.469440 -0.000001 175.558000 22.841900 176.748000 -39.081100 -0.002282 -0.040193 -0.012470 0.051504 17.051700 -40.985400 0.000008 0.000006 -2.512270 2.821550 -61.782900 -11.754300 -0.000006 -0.000006 -0.005147 -0.062884 -19.131800
0.000000 0.000000 0.000000 0.000000 0.000000 -0.000000 -1.101030 92.376400 -2.189760 87.815600 1.865090 0.173877 15.735700 0.000005 -0.000001 81.450700 86.388100 -81.013500 8.984550 -0.406207 -0.000000 -0.618124 -1.105630 0.867987 16.377300 -0.000001 -0.000001 -1.884080 -1.741810 -0.560987 6.456720 -0.000001 -0.000000 -4.916530 -1.284980 4.489210 12.994200 -0.242716 4.980390 -89.349900 -1.825100 -70.389200 5.348090 -0.000007 -0.000001 -66.891700 19.327200 -13.660700 24.328600 0.000019 0.000005 2.175090 5.680800 -20.990300 22.291600 -0.000001 0.000005 11.167700 5.554380 -8.918400 12.994500 -0.242716 -4.980390 88.177400 4.739240 -68.935600 -5.348130 -0.000001 -0.000004 -61.902000 16.685100 -11.229400 -24.328900 0.000322 -0.000009 -0.136495 -0.472267 -16.018400 -22.291500 -0.000108 -0.000004 16.965900 5.509820 -6.933950 -2.192480 -6.469440 -0.000000 -169.482000 -15.803700 -6.039470 39.081100 -0.000007 -0.000012 -0.144288 0.422250 18.866000 40.985400 -0.000006 -0.000013 -6.406240 4.262690 -60.900500 11.754300 -0.000000 0.000003 -0.000180 -0.001693 -16.641600 -2.192510 6.469440 -0.000001 175.444000 22.987200 176.836000 -39.081100 -0.002282 -0.040193 -0.013931 0.056174 17.078300 -40.985400 0.000008 0.000006 -2.639730 2.918780 -61.750600 -11.754300 -0.000006 -0.000006 -0.005295 -0.064290 -19.189100
0.000000 0.000000 0.000000 0.000000 0.000000 -0.000000 -1.075710 92.373000 -2.235290 87.824300 1.884460 0.284288 15.735700 0.000005 -0.000001 81.046500 86.385800 -80.623500 8.984550 -0.406207 -0.000000 -0.621326 -1.155680 0.839346 16.377300 -0.000001 -0.000001 -2.071970 -1.670550 -0.583089 6.456720 -0.000001 -0.000000 -5.252280 -1.187560 4.687570 12.994200 -0.242716 4.980390 -89.192500 -2.255510 -70.295200 5.348090 -0.000007 -0.000001 -64.197400 13.185800 -15.103000 24.328600 0.000019 0.000005 1.823840 5.113000 -19.659800 22.291600 -0.000001 0.000005 11.799800 5.540060 -8.245620 12.994500 -0.242716 -4.980390 88.344000 4.265110 -68.757400 -5.348130 -0.000001 -0.000004 -58.811600 10.662400 -13.055000 -24.328900 0.000322 -0.000009 -0.187065 -0.761364 -13.737900 -22.291500 -0.000108 -0.000004 15.777100 5.482010 -5.812370 -2.192480 -6.469440 -0.000000 -169.466000 -15.815900 -5.967870 39.081100 -0.000007 -0.000012 -0.145747 0.425570 18.905200 40.985400 -0.000006 -0.000013 -6.379920 4.363100 -60.899600 11.754300 -0.000000 0.000003 -0.000160 -0.001531 -16.635700 -2.192510 6.469440 -0.000001 175.364000 22.929500 176.931000 -39.081100 -0.002282 -0.040193 -0.017204 0.066810 17.082000 -40.985400 0.000008 0.000006 -2.737340 2.896670 -61.719900 -11.754300 -0.000006 -0.000006 -0.005235 -0.063717 -19.165800
0.000000 0.000000 0.000000 0.000000 0.000000 -0.000000 -1.052050 92.372700 -2.293990 87.811700 1.786750 0.327441 15.735700 0.000005 -0.000001 80.830200 86.410000 -80.415600 8.984550 -0.406207 -0.000000 -0.673465 -1.174470 0.821914 16.377300 -0.000001 -0.000001 -2.335240 -1.549560 -0.639154 6.456720 -0.000001 -0.000000 -5.617340 -1.056290 4.945620 12.994200 -0.242716 4.980390 -89.011500 -2.748300 -70.209100 5.348090 -0.000007 -0.000001 -61.364400 5.726840 -16.560700 24.328600 0.000019 0.000005 1.704770 4.933460 -19.089900 22.291600 -0.000001 0.000005 11.970500 5.524040 -7.535080 12.994500 -0.242716 -4.980390 88.522300 3.769280 -68.574800 -5.348130 -0.000001 -0.000004 -55.500900 3.630090 -15.064800 -24.328900 0.000322 -0.000009 -0.081980 -0.375142 -12.168000 -22.291500 -0.000108 -0.000004 15.195900 5.441700 -4.346640 -2.192480 -6.469440 -0.000000 -169.450000 -16.040400 -5.964740 39.081100 -0.000007 -0.000012 -0.146555 0.426497 18.964100 40.985400 -0.000006 -0.000013 -6.337180 4.489090 -60.888500 11.754300 -0.000000 0.000003 -0.000148 -0.001437 -16.632200 -2.192510 6.469440 -0.000001 175.359000 22.864400 176.912000 -39.081100 -0.002282 -0.040193 -0.017134 0.066560 17.087800 -40.985400 0.000008 0.000006 -2.801630 2.924990 -61.660100 -11.754300 -0.000006 -0.000006 -0.005053 -0.061972 -19.094600
0.000000 0.000000 0.000000 0.000000 0.000000 -0.000000 -1.022000 92.382400 -2.343120 87.809300 1.644910 0.318854 15.735700 0.000005 -0.000001 80.785400 86.473900 -80.390700 8.984550 -0.406207 -0.000000 -0.800662 -1.158550 0.780876 16.377300 -0.000001 -0.000001 -2.689600 -1.427420 -0.597143 6.456720 -0.000001 -0.000000 -5.903640 -0.911280 5.116200 12.994200 -0.242716 4.980390 -88.838600 -3.206490 -70.077300 5.348090 -0.000007 -0.000001 -58.396700 -2.356500 -18.191600 24.328600 0.000019 0.000005 1.768850 5.063130 -19.285900 22.291600 -0.000001 0.000005 12.574400 5.513000 -7.067520 12.994500 -0.242716 -4.980390 88.719300 3.243750 -68.440500 -5.348130 -0.000001 -0.000004 -52.136200 -3.979780 -17.067700 -24.328900 0.000322 -0.000009 -0.105718 -0.522872 -11.322400 -22.291500 -0.000108 -0.000004 15.949000 5.424000 -3.737240 -2.192480 -6.469440 -0.000000 -169.493000 -16.047000 -5.971180 39.081100 -0.000007 -0.000012 -0.144736 0.421473 18.952800 40.985400 -0.000006 -0.000013 -6.321810 4.343690 -60.881600 11.754300 -0.000000 0.000003 -0.000152 -0.001468 -16.633300 -2.192510 6.469440 -0.000001 175.378000 22.794900 176.851000 -39.081100 -0.002282 -0.040193 -0.013619 0.055201 17.065600 -40.985400 0.000008 0.000006 -2.700730 2.974780 -61.603500 -11.754300 -0.000006 -0.000006 -0.005375 -0.065046 -19.219900
0.000000 0.000000 0.000000 0.000000 0.000000 -0.000000 -1.013550 92.390100 -2.372300 87.756100 1.443040 0.338876 15.735700 0.000005 -0.000001 81.081500 86.544500 -80.689300 8.984550 -0.406207 -0.000000 -0.934662 -1.100960 0.775119 16.377300 -0.000001 -0.000001 -2.961320 -1.250520 -0.527963 6.456720 -0.000001 -0.000000 -6.287480 -0.739581 5.281000 12.994200 -0.242716 4.980390 -88.594100 -3.862020 -69.979300 5.348090 -0.000007 -0.000001 -56.002600 -11.065900 -20.167700 24.328600 0.000019 0.000005 1.805880 4.988330 -19.932400 22.291600 -0.000001 0.000005 13.896000 5.513590 -7.091940 12.994500 -0.242716 -4.980390 88.937400 2.684150 -68.392900 -5.348130 -0.000001 -0.000004 -48.751500 -11.685700 -19.230300 -24.328900 0.000322 -0.000009 -0.161156 -0.814536 -11.121200 -22.291500 -0.000108 -0.000004 17.221200 5.414030 -3.401250 -2.192480 -6.469440 -0.000000 -169.429000 -16.154600 -5.918880 39.081100 -0.000007 -0.000012 -0.146070 0.425665 18.940200 40.985400 -0.000006 -0.000013 -6.333040 4.267790 -60.876200 11.754300 -0.000000 0.000003 -0.000159 -0.001528 -16.635600 -2.192510 6.469440 -0.000001 175.444000 22.727900 176.835000 -39.081100 -0.002282 -0.040193 -0.012339 0.051206 17.010300 -40.985400 0.000008 0.000006 -2.601860 3.078920 -61.531500 -11.754300 -0.000006 -0.000006 -0.004954 -0.061016 -19.055600
0.000000 0.000000 0.000000 0.000000 0.000000 -0.000000 -0.993764 92.397600 -2.375150 87.756100 1.205560 0.371643 15.735700 0.000005 -0.000001 81.413000 86.630200 -81.045100 8.984550 -0.406207 -0.000000 -1.098650 -1.034520 0.725546 16.377300 -0.000001 -0.000001 -3.237220 -1.078720 -0.437212 6.456720 -0.000001 -0.000000 -6.626310 -0.547442 5.503130 12.994200 -0.242716 4.980390 -88.318800 -4.610980 -69.942400 5.348090 -0.000007 -0.000001 -53.182800 -18.511000 -22.225200 24.328600 0.000019 0.000005 1.442310 3.719710 -21.212200 22.291600 -0.000001 0.000005 14.949300 5.509180 -6.907770 12.994500 -0.242716 -4.980390 89.243300 1.909070 -68.374400 -5.348130 -0.000001 -0.000004 -45.555300 -18.556900 -21.610800 -24.328900 0.000322 -0.000009 -0.263802 -1.311320 -11.330900 -22.291500 -0.000108 -0.000004 19.015700 5.402630 -3.022660 -2.192480 -6.469440 -0.000000 -169.430000 -16.108600 -5.789590 39.081100 -0.000007 -0.000012 -0.144603 0.422932 18.876100 40.985400 -0.000006 -0.000013 -6.368130 4.013170 -60.899800 11.754300 -0.000000 0.000003 -0.000147 -0.001432 -16.632000 -2.192510 6.469440 -0.000001 175.436000 22.612100 176.839000 -39.081100 -0.002282 -0.040193 -0.009957 0.043467 16.993200 -40.985400 0.000008 0.000006 -2.468160 3.189340 -61.504200 -11.754300 -0.000006 -0.000006 -0.005238 -0.063751 -19.167100
